<?xml version="1.0" standalone="no"?>
<!DOCTYPE svg PUBLIC "-//W3C//DTD SVG 20010904//EN"
 "http://www.w3.org/TR/2001/REC-SVG-20010904/DTD/svg10.dtd">
<svg version="1.0" xmlns="http://www.w3.org/2000/svg"
 width="1024.000000pt" height="1024.000000pt" viewBox="0 0 1024.000000 1024.000000"
 preserveAspectRatio="xMidYMid meet">

<g transform="translate(0.000000,1024.000000) scale(0.100000,-0.100000)"
fill="#000000" stroke="none">
<path d="M5297 8539 c-21 -11 -136 -65 -255 -119 -120 -54 -431 -198 -692
-320 -261 -122 -536 -251 -610 -285 -74 -34 -184 -86 -245 -115 -256 -121
-1760 -820 -1967 -915 l-128 -58 0 -179 0 -178 1210 0 c790 0 1210 -3 1210
-10 0 -5 -14 -53 -31 -106 -26 -83 -37 -103 -78 -143 -132 -129 -212 -296
-236 -493 l-6 -48 -90 0 c-49 0 -89 -4 -89 -8 0 -4 32 -44 71 -87 39 -44 87
-98 105 -121 l34 -41 0 -1019 0 -1019 -106 -113 -106 -112 326 0 326 0 0 81
c0 76 -2 82 -29 110 l-29 29 -4 658 -3 659 27 -73 c64 -177 183 -272 404 -322
l74 -17 64 -145 c155 -353 236 -637 261 -913 l7 -67 230 2 231 3 10 30 c5 17
41 111 80 210 81 208 208 464 302 614 36 57 64 106 62 108 -3 2 -58 -17 -123
-42 -153 -60 -692 -261 -721 -269 -20 -6 -23 0 -47 102 -14 60 -26 124 -26
144 0 41 -25 29 247 127 299 108 561 229 767 354 156 93 128 99 -142 27 -390
-103 -617 -138 -952 -147 -285 -7 -387 3 -477 47 -226 111 -366 525 -367 1090
-1 272 4 294 149 566 l27 52 44 -19 c51 -23 119 -30 119 -12 0 7 -21 26 -47
42 -27 17 -48 35 -48 39 0 13 40 62 49 62 5 0 11 -14 15 -31 3 -17 19 -44 35
-60 36 -35 84 -38 150 -9 24 11 46 19 48 17 11 -12 -15 -39 -63 -64 -59 -31
-74 -63 -29 -63 14 0 25 -2 25 -4 0 -3 -39 -66 -86 -142 -100 -159 -111 -187
-88 -222 30 -45 207 -242 218 -242 30 0 96 34 96 50 0 19 -30 50 -49 50 -15 0
-73 60 -139 144 l-46 59 26 46 c14 25 71 129 128 231 189 340 197 368 140 466
-37 65 -68 90 -139 111 -66 19 -242 21 -315 4 -27 -6 -51 -10 -53 -7 -7 7 37
167 74 266 45 122 131 288 188 365 133 178 268 267 575 380 59 22 85 38 120
76 67 71 158 102 354 119 520 45 1007 -217 1348 -726 126 -187 227 -409 283
-618 l24 -88 -22 6 c-12 3 -54 13 -94 22 l-72 17 -21 71 c-94 309 -254 581
-475 801 -287 288 -589 425 -936 425 -134 0 -214 -12 -249 -39 -20 -15 -25
-27 -24 -60 1 -68 40 -106 180 -176 161 -81 200 -104 323 -198 141 -107 197
-142 285 -177 79 -32 256 -78 401 -105 69 -13 95 -23 113 -42 18 -19 20 -28
11 -44 -5 -11 -17 -23 -26 -26 -8 -3 -77 8 -152 25 -75 17 -179 40 -232 52
-53 11 -128 36 -168 55 l-71 34 0 -82 c2 -275 117 -499 328 -637 130 -84 122
-74 87 -101 -101 -76 -169 -180 -206 -314 -18 -65 -22 -106 -22 -220 -1 -231
47 -427 157 -646 l54 -106 6 -164 c9 -220 24 -462 37 -584 32 -317 123 -694
226 -941 l35 -84 307 0 306 0 -55 34 c-105 65 -163 112 -245 198 -170 178
-275 392 -320 652 -18 105 -19 152 -4 232 35 188 182 321 429 383 120 31 237
70 291 97 111 55 215 170 279 306 26 55 40 72 88 103 31 21 96 77 143 124 189
189 280 441 239 662 -16 85 -74 193 -141 260 -85 85 -225 148 -359 161 -22 3
-26 9 -33 58 -62 424 -183 687 -432 936 -213 214 -536 392 -858 475 -401 103
-819 103 -1148 0 -376 -118 -691 -375 -852 -696 -44 -90 -100 -226 -117 -287
l-13 -48 -863 0 c-521 0 -864 4 -864 9 0 10 152 86 425 211 99 45 252 116 340
158 187 87 1132 532 1285 604 181 86 269 127 460 215 102 47 244 112 315 145
207 96 348 158 361 158 7 0 45 -15 85 -34 41 -19 234 -105 429 -192 195 -86
461 -206 590 -267 129 -60 370 -172 535 -249 165 -77 388 -180 495 -228 258
-116 857 -389 991 -451 59 -27 120 -54 135 -61 24 -11 -82 -13 -595 -16 l-623
-2 6 -28 c8 -40 34 -199 41 -254 l6 -48 955 0 954 0 0 180 0 180 -37 19 c-21
10 -312 144 -648 296 -767 348 -1191 542 -1755 802 -245 113 -668 306 -940
430 -272 123 -524 237 -559 254 -74 34 -75 34 -124 8z m-1145 -2130 c74 -16
131 -44 180 -91 46 -43 45 -43 -51 -3 -55 23 -75 26 -147 23 -88 -3 -117 -16
-157 -70 -29 -39 -13 -51 29 -23 59 40 158 58 193 36 9 -6 -4 -11 -40 -16 -69
-9 -158 -49 -185 -83 l-22 -27 -15 52 c-21 69 -30 155 -18 172 11 16 92 39
143 40 20 1 61 -4 90 -10z"/>
<path d="M4972 6558 c-74 -8 -118 -31 -149 -78 -34 -50 -31 -64 15 -56 20 3
105 13 187 22 242 25 386 7 542 -68 45 -22 87 -37 93 -33 18 11 10 55 -15 81
-44 44 -182 102 -280 118 -104 17 -301 24 -393 14z"/>
<path d="M5038 6354 c-38 -15 -86 -43 -109 -63 -36 -32 -39 -38 -27 -54 13
-17 18 -16 91 23 87 47 151 60 249 50 79 -9 151 -41 242 -109 75 -55 87 -59
107 -35 12 15 7 22 -38 63 -60 54 -145 107 -205 129 -25 9 -86 17 -143 19 -89
3 -108 0 -167 -23z"/>
<path d="M5085 6258 c-33 -12 -150 -92 -161 -109 -3 -6 0 -17 8 -25 12 -12 25
-8 93 31 84 47 95 47 95 -6 0 -18 12 -37 37 -59 34 -30 40 -32 101 -28 56 4
68 8 88 32 14 15 32 26 42 24 33 -6 17 -33 -37 -60 -64 -33 -138 -37 -217 -13
-45 14 -50 13 -62 -2 -17 -23 3 -38 70 -52 67 -15 113 -14 182 4 60 16 161 76
180 107 15 25 -52 91 -134 131 -57 27 -77 31 -160 34 -53 1 -108 -2 -125 -9z"/>
<path d="M1688 6174 c-3 -3 3 -28 14 -57 28 -71 74 -230 88 -299 l11 -58 827
0 828 0 11 71 c16 104 77 220 152 292 l60 57 -993 0 c-546 0 -995 -2 -998 -6z"/>
<path d="M7837 6174 c-3 -3 16 -32 42 -65 63 -78 99 -154 125 -261 l21 -88
436 0 437 0 7 48 c4 26 27 112 52 192 25 80 48 153 50 163 5 16 -27 17 -579
17 -322 0 -587 -3 -591 -6z"/>
<path d="M4356 5564 c-33 -32 -7 -60 69 -73 32 -6 88 -25 123 -41 98 -46 142
-39 142 21 0 22 -26 36 -147 78 -101 34 -163 39 -187 15z"/>
<path d="M2050 4310 l0 -1260 291 0 291 0 -30 37 c-17 21 -65 72 -106 113
l-76 74 0 1027 0 1026 26 24 c34 31 184 205 184 213 0 3 -130 6 -290 6 l-290
0 0 -1260z"/>
<path d="M8100 5555 c0 -9 19 -37 43 -63 23 -26 68 -77 100 -114 l57 -66 -2
-1019 -3 -1018 -37 -36 c-37 -36 -38 -38 -38 -113 l0 -76 220 0 220 0 0 1260
0 1260 -280 0 c-246 0 -280 -2 -280 -15z"/>
<path d="M4381 5204 l-53 -27 -48 23 c-56 26 -75 24 -145 -22 -54 -36 -69 -73
-40 -101 14 -14 19 -14 61 0 40 14 56 14 115 3 53 -10 78 -11 108 -2 63 19
129 14 280 -23 171 -42 181 -43 181 -12 0 33 -21 48 -135 95 -55 22 -127 52
-160 66 -76 32 -99 32 -164 0z"/>
<path d="M4156 4964 c-15 -38 19 -60 116 -75 76 -12 195 -6 248 12 29 11 49
47 36 67 -3 6 -88 10 -200 10 -160 1 -195 -2 -200 -14z"/>
<path d="M7512 4850 c-35 -113 -178 -272 -298 -333 l-65 -33 -4 -609 c-2 -488
-6 -610 -16 -614 -7 -2 -23 -14 -36 -27 -20 -20 -23 -33 -23 -104 l0 -80 260
0 260 0 0 80 c0 74 -2 82 -30 113 l-30 35 -2 806 c-3 671 -5 800 -16 766z"/>
<path d="M1917 2809 c-100 -24 -176 -93 -203 -185 -20 -70 -16 -210 7 -225 8
-5 1531 -9 3641 -9 l3626 0 7 66 c8 73 0 152 -20 200 -21 51 -81 110 -138 135
l-52 24 -3415 2 c-1969 0 -3431 -3 -3453 -8z"/>
<path d="M1475 2260 c-17 -5 -46 -25 -64 -44 -70 -72 -45 -191 53 -251 l49
-30 241 -5 c133 -3 1850 -5 3816 -5 3336 1 3578 2 3618 18 148 58 188 201 83
290 -65 54 -154 43 -243 -30 -29 -24 -69 -48 -89 -53 -24 -7 -1287 -9 -3605
-8 l-3569 3 -45 28 c-25 15 -64 42 -86 59 -46 33 -107 44 -159 28z"/>
<path d="M1170 1819 c-66 -27 -109 -106 -95 -172 13 -58 43 -95 103 -124 l57
-28 4115 0 4115 0 48 24 c162 79 123 311 -51 311 -54 0 -86 -13 -141 -59 -25
-21 -57 -44 -71 -52 -21 -12 -596 -14 -3835 -17 -2177 -1 -3845 2 -3892 7 -78
8 -86 11 -154 62 -61 45 -79 53 -123 56 -28 1 -62 -2 -76 -8z"/>
</g>
</svg>
