<?xml version="1.0" standalone="no"?>
<!DOCTYPE svg PUBLIC "-//W3C//DTD SVG 20010904//EN"
 "http://www.w3.org/TR/2001/REC-SVG-20010904/DTD/svg10.dtd">
<svg version="1.0" xmlns="http://www.w3.org/2000/svg"
 width="481.000000pt" height="481.000000pt" viewBox="0 0 481.000000 481.000000"
 preserveAspectRatio="xMidYMid meet">

<g transform="translate(0.000000,481.000000) scale(0.100000,-0.100000)"
fill="#000000" stroke="none">
<path d="M2399 3966 c-58 -29 -128 -61 -155 -71 -27 -10 -125 -55 -219 -101
-93 -45 -231 -110 -305 -144 -74 -34 -171 -79 -215 -100 -118 -57 -382 -179
-525 -244 -69 -32 -168 -78 -220 -104 l-95 -47 0 -80 0 -80 567 -3 567 -2 -14
-45 c-7 -25 -30 -64 -50 -87 -45 -49 -84 -132 -93 -196 -7 -47 -7 -47 -50 -50
l-42 -3 50 -58 50 -58 0 -478 0 -479 -52 -53 -53 -54 150 3 150 3 3 36 c2 23
-2 40 -12 49 -14 11 -16 54 -15 324 1 286 2 308 16 276 35 -82 86 -124 180
-149 50 -14 54 -20 112 -174 43 -112 66 -203 79 -302 l7 -60 105 0 104 0 51
125 c57 139 70 165 126 257 21 34 35 63 29 63 -5 0 -85 -30 -177 -66 -227 -89
-218 -88 -232 -24 -19 87 -19 87 57 110 129 40 251 94 380 168 69 40 79 55 30
42 -86 -23 -251 -59 -318 -71 -86 -14 -327 -18 -383 -6 -124 26 -208 234 -211
517 l-1 125 42 88 c45 94 42 91 101 70 19 -8 14 7 -8 25 -15 13 -17 21 -10 32
8 13 14 10 33 -14 24 -30 30 -30 94 -10 10 3 4 -7 -17 -25 -19 -17 -29 -31
-22 -31 19 0 14 -14 -24 -71 -60 -90 -60 -90 -1 -159 44 -52 56 -60 77 -55 14
4 27 8 29 10 2 2 -22 27 -53 56 -57 52 -68 79 -42 108 35 41 128 228 129 262
3 79 -61 117 -180 106 -47 -5 -63 -3 -63 6 0 7 13 53 28 103 52 165 154 280
295 334 43 17 82 30 86 30 4 0 20 13 34 30 35 39 110 60 216 60 114 0 198 -21
298 -75 144 -76 251 -186 336 -345 41 -75 97 -220 97 -249 0 -11 -52 -5 -81
10 -9 5 -19 22 -23 39 -9 49 -70 183 -110 243 -20 30 -71 90 -114 133 -85 88
-190 151 -298 179 -66 17 -200 20 -238 5 -54 -20 -17 -75 84 -125 30 -15 87
-51 125 -79 93 -69 141 -91 271 -124 93 -23 109 -30 109 -47 0 -15 -6 -20 -25
-19 -43 2 -207 42 -239 59 l-31 16 0 -54 c0 -114 63 -229 156 -283 24 -14 44
-28 44 -30 0 -2 -17 -21 -39 -43 -104 -104 -109 -305 -12 -506 39 -80 39 -81
45 -235 9 -246 56 -506 114 -628 l17 -37 140 -2 c113 -2 136 0 121 10 -147 92
-257 267 -273 432 -12 131 45 213 177 254 41 13 97 30 125 39 56 17 140 93
168 153 9 20 41 55 71 78 132 102 190 270 135 391 -35 78 -62 99 -169 136
l-65 21 -7 56 c-22 174 -109 336 -235 441 -80 67 -278 168 -373 190 -172 41
-373 41 -511 0 -64 -19 -175 -72 -220 -105 -106 -79 -169 -164 -226 -304 l-32
-80 -406 -3 c-223 -1 -405 1 -405 6 0 5 53 34 118 65 317 151 592 281 634 297
25 11 114 53 198 95 83 41 183 88 223 104 40 16 127 56 195 89 l123 60 52 -23
c29 -12 95 -43 148 -68 53 -24 107 -48 120 -52 29 -9 117 -49 259 -118 58 -27
191 -89 295 -137 105 -47 297 -135 428 -195 130 -59 237 -112 237 -117 0 -4
-128 -8 -285 -8 -157 0 -285 -3 -284 -7 0 -5 6 -37 13 -73 l12 -65 445 0 444
0 0 80 0 80 -50 25 c-104 52 -544 255 -705 325 -96 42 -418 190 -677 311 -111
52 -204 94 -208 94 -3 0 -32 12 -63 26 -102 47 -184 84 -185 83 -1 0 -50 -24
-108 -53z m-399 -971 c14 -7 33 -22 43 -32 17 -19 16 -19 -41 0 -54 17 -62 17
-95 3 -20 -8 -37 -20 -37 -26 0 -7 6 -8 19 0 11 5 37 10 58 10 l38 -1 -50 -18
c-27 -10 -58 -21 -67 -25 -13 -6 -18 -1 -23 27 -10 50 -3 70 25 78 31 9 97 1
130 -16z"/>
<path d="M2284 3057 c-16 -14 -26 -28 -23 -31 3 -4 48 -2 99 4 105 12 188 1
253 -31 21 -11 42 -18 45 -14 12 12 -15 41 -64 65 -42 21 -66 25 -165 28 -112
4 -117 3 -145 -21z"/>
<path d="M2354 2976 c-32 -14 -50 -33 -41 -42 3 -3 20 2 39 12 20 10 56 17 90
17 47 0 67 -5 108 -31 62 -38 82 -41 50 -7 -56 59 -172 83 -246 51z"/>
<path d="M2358 2918 c-21 -12 -38 -26 -38 -30 0 -12 14 -10 36 7 28 21 54 19
54 -5 0 -38 68 -54 102 -23 10 9 21 13 26 9 4 -4 -4 -17 -18 -28 -21 -17 -34
-19 -77 -15 -29 3 -53 2 -53 -3 0 -14 73 -21 107 -11 42 12 95 50 87 62 -3 5
-27 21 -54 34 -62 31 -122 32 -172 3z"/>
<path d="M800 2892 c0 -4 9 -35 19 -68 11 -32 22 -71 25 -86 l6 -28 385 0 385
0 6 28 c12 53 16 62 50 112 l34 50 -455 0 c-250 0 -455 -4 -455 -8z"/>
<path d="M3717 2853 c15 -26 32 -67 39 -92 l11 -46 204 -3 204 -2 21 77 c12
43 25 86 29 96 7 16 -10 17 -264 17 l-272 0 28 -47z"/>
<path d="M2050 2606 c0 -13 67 -42 123 -53 20 -4 27 -1 27 10 0 10 -21 23 -55
36 -65 24 -95 27 -95 7z"/>
<path d="M960 2025 c0 -473 3 -587 13 -591 7 -2 69 -3 138 -2 l124 3 -52 51
-53 50 0 479 0 478 51 59 50 58 -135 0 -136 0 0 -585z"/>
<path d="M3821 2593 c7 -10 28 -34 46 -54 l33 -35 0 -484 c0 -417 -2 -486 -15
-500 -8 -9 -15 -33 -15 -54 l0 -37 98 3 97 3 3 588 2 587 -131 0 c-124 0 -131
-1 -118 -17z"/>
<path d="M1947 2433 c-15 -10 -26 -24 -25 -32 2 -12 25 -14 112 -13 69 1 130
-4 167 -13 68 -18 69 -18 69 -5 0 6 -35 26 -77 46 -58 26 -86 34 -108 29 -40
-8 -66 -9 -90 -1 -12 3 -32 -1 -48 -11z"/>
<path d="M1954 2329 c-9 -16 36 -29 98 -29 61 0 100 12 85 26 -9 10 -177 12
-183 3z"/>
<path d="M3507 2231 c-19 -42 -85 -103 -124 -115 l-23 -7 0 -287 c0 -279 -1
-288 -21 -300 -15 -10 -19 -21 -17 -50 l3 -37 118 -3 117 -3 0 45 c0 30 -5 46
-15 50 -13 4 -15 59 -17 377 -3 369 -3 371 -21 330z"/>
<path d="M870 1302 c-20 -10 -42 -32 -52 -52 -21 -42 -23 -103 -4 -119 10 -8
463 -10 1707 -9 l1694 3 3 52 c4 66 -18 110 -63 129 -29 12 -275 14 -1642 14
-1511 0 -1610 -1 -1643 -18z"/>
<path d="M700 1063 c-74 -27 -64 -123 16 -153 37 -14 3554 -13 3591 1 82 31
100 110 32 144 -32 17 -50 13 -99 -24 l-35 -26 -1691 0 -1691 0 -34 26 c-39
30 -67 40 -89 32z"/>
<path d="M540 847 c-46 -23 -39 -106 10 -132 26 -13 247 -15 1976 -13 l1946 3
19 24 c40 49 12 131 -44 131 -13 0 -44 -13 -68 -30 l-44 -30 -1825 0 -1825 0
-44 30 c-49 33 -64 36 -101 17z"/>
</g>
</svg>
